<mxfile host="Electron" agent="Mozilla/5.0 (Windows NT 10.0; Win64; x64) AppleWebKit/537.36 (KHTML, like Gecko) draw.io/24.7.17 Chrome/128.0.6613.36 Electron/32.0.1 Safari/537.36" version="24.7.17">
  <diagram name="Страница — 1" id="FVh25OloOhsGCx9n1_y4">
    <mxGraphModel dx="2100" dy="1242" grid="1" gridSize="10" guides="1" tooltips="1" connect="1" arrows="1" fold="1" page="1" pageScale="1" pageWidth="827" pageHeight="1169" math="0" shadow="0">
      <root>
        <mxCell id="0" />
        <mxCell id="1" parent="0" />
        <mxCell id="pCiRDCnECNyycecCbyI0-6" style="edgeStyle=orthogonalEdgeStyle;rounded=0;orthogonalLoop=1;jettySize=auto;html=1;curved=1;exitX=0.5;exitY=1;exitDx=0;exitDy=0;entryX=0.5;entryY=1;entryDx=0;entryDy=0;" edge="1" parent="1" source="pCiRDCnECNyycecCbyI0-1" target="pCiRDCnECNyycecCbyI0-5">
          <mxGeometry relative="1" as="geometry" />
        </mxCell>
        <mxCell id="pCiRDCnECNyycecCbyI0-7" value="Зарегистрироваться/&lt;div&gt;войти&lt;/div&gt;" style="edgeLabel;html=1;align=center;verticalAlign=middle;resizable=0;points=[];" vertex="1" connectable="0" parent="pCiRDCnECNyycecCbyI0-6">
          <mxGeometry x="-0.0429" relative="1" as="geometry">
            <mxPoint x="7" y="-28" as="offset" />
          </mxGeometry>
        </mxCell>
        <mxCell id="pCiRDCnECNyycecCbyI0-1" value="Пользователь не в системе" style="rounded=1;whiteSpace=wrap;html=1;" vertex="1" parent="1">
          <mxGeometry x="50" y="280" width="120" height="60" as="geometry" />
        </mxCell>
        <mxCell id="pCiRDCnECNyycecCbyI0-10" style="edgeStyle=orthogonalEdgeStyle;shape=connector;curved=1;rounded=0;orthogonalLoop=1;jettySize=auto;html=1;strokeColor=default;align=center;verticalAlign=middle;fontFamily=Helvetica;fontSize=11;fontColor=default;labelBackgroundColor=default;endArrow=classic;entryX=0.5;entryY=0;entryDx=0;entryDy=0;" edge="1" parent="1" source="pCiRDCnECNyycecCbyI0-5" target="pCiRDCnECNyycecCbyI0-8">
          <mxGeometry relative="1" as="geometry" />
        </mxCell>
        <mxCell id="pCiRDCnECNyycecCbyI0-15" value="Создать проект/&lt;div&gt;войти в существующий&lt;/div&gt;" style="edgeLabel;html=1;align=center;verticalAlign=middle;resizable=0;points=[];fontFamily=Helvetica;fontSize=11;fontColor=default;labelBackgroundColor=default;" vertex="1" connectable="0" parent="pCiRDCnECNyycecCbyI0-10">
          <mxGeometry x="-0.208" y="1" relative="1" as="geometry">
            <mxPoint x="7" y="-19" as="offset" />
          </mxGeometry>
        </mxCell>
        <mxCell id="pCiRDCnECNyycecCbyI0-5" value="Пользователь в рабочей области" style="rounded=1;whiteSpace=wrap;html=1;" vertex="1" parent="1">
          <mxGeometry x="310" y="280" width="120" height="60" as="geometry" />
        </mxCell>
        <mxCell id="pCiRDCnECNyycecCbyI0-11" style="edgeStyle=orthogonalEdgeStyle;shape=connector;curved=1;rounded=0;orthogonalLoop=1;jettySize=auto;html=1;strokeColor=default;align=center;verticalAlign=middle;fontFamily=Helvetica;fontSize=11;fontColor=default;labelBackgroundColor=default;endArrow=classic;entryX=1;entryY=0.5;entryDx=0;entryDy=0;exitX=1;exitY=0.75;exitDx=0;exitDy=0;" edge="1" parent="1" source="pCiRDCnECNyycecCbyI0-8" target="pCiRDCnECNyycecCbyI0-9">
          <mxGeometry relative="1" as="geometry" />
        </mxCell>
        <mxCell id="pCiRDCnECNyycecCbyI0-18" value="Войти в задачу/&lt;div&gt;создать задачу&lt;/div&gt;" style="edgeLabel;html=1;align=center;verticalAlign=middle;resizable=0;points=[];fontFamily=Helvetica;fontSize=11;fontColor=default;labelBackgroundColor=default;" vertex="1" connectable="0" parent="pCiRDCnECNyycecCbyI0-11">
          <mxGeometry x="-0.2048" y="-2" relative="1" as="geometry">
            <mxPoint x="67" y="18" as="offset" />
          </mxGeometry>
        </mxCell>
        <mxCell id="pCiRDCnECNyycecCbyI0-16" style="edgeStyle=orthogonalEdgeStyle;shape=connector;curved=1;rounded=0;orthogonalLoop=1;jettySize=auto;html=1;entryX=0.75;entryY=1;entryDx=0;entryDy=0;strokeColor=default;align=center;verticalAlign=middle;fontFamily=Helvetica;fontSize=11;fontColor=default;labelBackgroundColor=default;endArrow=classic;" edge="1" parent="1" source="pCiRDCnECNyycecCbyI0-8" target="pCiRDCnECNyycecCbyI0-5">
          <mxGeometry relative="1" as="geometry" />
        </mxCell>
        <mxCell id="pCiRDCnECNyycecCbyI0-17" value="Выйти/&lt;div&gt;был исключен&lt;/div&gt;" style="edgeLabel;html=1;align=center;verticalAlign=middle;resizable=0;points=[];fontFamily=Helvetica;fontSize=11;fontColor=default;labelBackgroundColor=default;" vertex="1" connectable="0" parent="pCiRDCnECNyycecCbyI0-16">
          <mxGeometry x="0.269" y="-2" relative="1" as="geometry">
            <mxPoint x="29" y="22" as="offset" />
          </mxGeometry>
        </mxCell>
        <mxCell id="pCiRDCnECNyycecCbyI0-20" style="edgeStyle=orthogonalEdgeStyle;shape=connector;curved=1;rounded=0;orthogonalLoop=1;jettySize=auto;html=1;strokeColor=default;align=center;verticalAlign=middle;fontFamily=Helvetica;fontSize=11;fontColor=default;labelBackgroundColor=default;endArrow=classic;" edge="1" parent="1" source="pCiRDCnECNyycecCbyI0-8" target="pCiRDCnECNyycecCbyI0-19">
          <mxGeometry relative="1" as="geometry" />
        </mxCell>
        <mxCell id="pCiRDCnECNyycecCbyI0-21" value="Нажать на кнопку &quot;Архив&quot;" style="edgeLabel;html=1;align=center;verticalAlign=middle;resizable=0;points=[];fontFamily=Helvetica;fontSize=11;fontColor=default;labelBackgroundColor=default;" vertex="1" connectable="0" parent="pCiRDCnECNyycecCbyI0-20">
          <mxGeometry x="-0.1703" y="14" relative="1" as="geometry">
            <mxPoint x="36" y="24" as="offset" />
          </mxGeometry>
        </mxCell>
        <mxCell id="pCiRDCnECNyycecCbyI0-8" value="Пользователь в проекте" style="rounded=1;whiteSpace=wrap;html=1;" vertex="1" parent="1">
          <mxGeometry x="520" y="330" width="120" height="60" as="geometry" />
        </mxCell>
        <mxCell id="pCiRDCnECNyycecCbyI0-22" style="edgeStyle=orthogonalEdgeStyle;shape=connector;curved=1;rounded=0;orthogonalLoop=1;jettySize=auto;html=1;entryX=0.25;entryY=1;entryDx=0;entryDy=0;strokeColor=default;align=center;verticalAlign=middle;fontFamily=Helvetica;fontSize=11;fontColor=default;labelBackgroundColor=default;endArrow=classic;" edge="1" parent="1" source="pCiRDCnECNyycecCbyI0-9" target="pCiRDCnECNyycecCbyI0-8">
          <mxGeometry relative="1" as="geometry" />
        </mxCell>
        <mxCell id="pCiRDCnECNyycecCbyI0-23" value="Выйти из задачи/&lt;div&gt;задача была удалена&lt;/div&gt;" style="edgeLabel;html=1;align=center;verticalAlign=middle;resizable=0;points=[];fontFamily=Helvetica;fontSize=11;fontColor=default;labelBackgroundColor=default;" vertex="1" connectable="0" parent="pCiRDCnECNyycecCbyI0-22">
          <mxGeometry x="-0.6084" y="-8" relative="1" as="geometry">
            <mxPoint x="-68" y="-14" as="offset" />
          </mxGeometry>
        </mxCell>
        <mxCell id="pCiRDCnECNyycecCbyI0-9" value="Пользователь в задаче" style="rounded=1;whiteSpace=wrap;html=1;" vertex="1" parent="1">
          <mxGeometry x="490" y="510" width="120" height="60" as="geometry" />
        </mxCell>
        <mxCell id="pCiRDCnECNyycecCbyI0-13" style="edgeStyle=orthogonalEdgeStyle;shape=connector;curved=1;rounded=0;orthogonalLoop=1;jettySize=auto;html=1;entryX=0.473;entryY=-0.006;entryDx=0;entryDy=0;entryPerimeter=0;strokeColor=default;align=center;verticalAlign=middle;fontFamily=Helvetica;fontSize=11;fontColor=default;labelBackgroundColor=default;endArrow=classic;exitX=0.583;exitY=0;exitDx=0;exitDy=0;exitPerimeter=0;" edge="1" parent="1" source="pCiRDCnECNyycecCbyI0-5" target="pCiRDCnECNyycecCbyI0-1">
          <mxGeometry relative="1" as="geometry" />
        </mxCell>
        <mxCell id="pCiRDCnECNyycecCbyI0-14" value="Выйти из аккаунта" style="edgeLabel;html=1;align=center;verticalAlign=middle;resizable=0;points=[];fontFamily=Helvetica;fontSize=11;fontColor=default;labelBackgroundColor=default;" vertex="1" connectable="0" parent="pCiRDCnECNyycecCbyI0-13">
          <mxGeometry x="0.0336" y="1" relative="1" as="geometry">
            <mxPoint x="1" y="-11" as="offset" />
          </mxGeometry>
        </mxCell>
        <mxCell id="pCiRDCnECNyycecCbyI0-19" value="Пользователь в архиве" style="rounded=1;whiteSpace=wrap;html=1;" vertex="1" parent="1">
          <mxGeometry x="650" y="240" width="120" height="60" as="geometry" />
        </mxCell>
        <mxCell id="pCiRDCnECNyycecCbyI0-27" style="edgeStyle=orthogonalEdgeStyle;shape=connector;curved=1;rounded=0;orthogonalLoop=1;jettySize=auto;html=1;entryX=0;entryY=0.5;entryDx=0;entryDy=0;strokeColor=default;align=center;verticalAlign=middle;fontFamily=Helvetica;fontSize=11;fontColor=default;labelBackgroundColor=default;endArrow=classic;exitX=0.5;exitY=0;exitDx=0;exitDy=0;" edge="1" parent="1" source="pCiRDCnECNyycecCbyI0-24" target="pCiRDCnECNyycecCbyI0-25">
          <mxGeometry relative="1" as="geometry" />
        </mxCell>
        <mxCell id="pCiRDCnECNyycecCbyI0-28" value="Нажать &quot;Создать доску&quot;" style="edgeLabel;html=1;align=center;verticalAlign=middle;resizable=0;points=[];fontFamily=Helvetica;fontSize=11;fontColor=default;labelBackgroundColor=default;" vertex="1" connectable="0" parent="pCiRDCnECNyycecCbyI0-27">
          <mxGeometry x="-0.0626" y="-14" relative="1" as="geometry">
            <mxPoint x="4" y="-24" as="offset" />
          </mxGeometry>
        </mxCell>
        <mxCell id="pCiRDCnECNyycecCbyI0-24" value="Проект не существует" style="rounded=1;whiteSpace=wrap;html=1;fontFamily=Helvetica;fontSize=11;fontColor=default;labelBackgroundColor=default;" vertex="1" parent="1">
          <mxGeometry x="200" y="760" width="120" height="60" as="geometry" />
        </mxCell>
        <mxCell id="pCiRDCnECNyycecCbyI0-29" style="edgeStyle=orthogonalEdgeStyle;shape=connector;curved=1;rounded=0;orthogonalLoop=1;jettySize=auto;html=1;strokeColor=default;align=center;verticalAlign=middle;fontFamily=Helvetica;fontSize=11;fontColor=default;labelBackgroundColor=default;endArrow=classic;" edge="1" parent="1" source="pCiRDCnECNyycecCbyI0-25" target="pCiRDCnECNyycecCbyI0-26">
          <mxGeometry relative="1" as="geometry" />
        </mxCell>
        <mxCell id="pCiRDCnECNyycecCbyI0-30" value="Нажать &quot;Добавить колонку&quot;" style="edgeLabel;html=1;align=center;verticalAlign=middle;resizable=0;points=[];fontFamily=Helvetica;fontSize=11;fontColor=default;labelBackgroundColor=default;" vertex="1" connectable="0" parent="pCiRDCnECNyycecCbyI0-29">
          <mxGeometry x="0.1724" y="-21" relative="1" as="geometry">
            <mxPoint x="91" y="13" as="offset" />
          </mxGeometry>
        </mxCell>
        <mxCell id="pCiRDCnECNyycecCbyI0-35" style="edgeStyle=orthogonalEdgeStyle;shape=connector;curved=1;rounded=0;orthogonalLoop=1;jettySize=auto;html=1;entryX=0.25;entryY=0;entryDx=0;entryDy=0;strokeColor=default;align=center;verticalAlign=middle;fontFamily=Helvetica;fontSize=11;fontColor=default;labelBackgroundColor=default;endArrow=classic;exitX=0.5;exitY=0;exitDx=0;exitDy=0;" edge="1" parent="1" source="pCiRDCnECNyycecCbyI0-25" target="pCiRDCnECNyycecCbyI0-24">
          <mxGeometry relative="1" as="geometry" />
        </mxCell>
        <mxCell id="pCiRDCnECNyycecCbyI0-36" value="Удалить проект" style="edgeLabel;html=1;align=center;verticalAlign=middle;resizable=0;points=[];fontFamily=Helvetica;fontSize=11;fontColor=default;labelBackgroundColor=default;" vertex="1" connectable="0" parent="pCiRDCnECNyycecCbyI0-35">
          <mxGeometry x="0.1843" y="15" relative="1" as="geometry">
            <mxPoint x="-26" y="-15" as="offset" />
          </mxGeometry>
        </mxCell>
        <mxCell id="pCiRDCnECNyycecCbyI0-25" value="Проект пуст" style="rounded=1;whiteSpace=wrap;html=1;fontFamily=Helvetica;fontSize=11;fontColor=default;labelBackgroundColor=default;" vertex="1" parent="1">
          <mxGeometry x="460" y="660" width="120" height="60" as="geometry" />
        </mxCell>
        <mxCell id="pCiRDCnECNyycecCbyI0-31" style="edgeStyle=orthogonalEdgeStyle;shape=connector;curved=1;rounded=0;orthogonalLoop=1;jettySize=auto;html=1;strokeColor=default;align=center;verticalAlign=middle;fontFamily=Helvetica;fontSize=11;fontColor=default;labelBackgroundColor=default;endArrow=classic;" edge="1" parent="1" source="pCiRDCnECNyycecCbyI0-26" target="pCiRDCnECNyycecCbyI0-25">
          <mxGeometry relative="1" as="geometry" />
        </mxCell>
        <mxCell id="pCiRDCnECNyycecCbyI0-32" value="Удалить все элементы" style="edgeLabel;html=1;align=center;verticalAlign=middle;resizable=0;points=[];fontFamily=Helvetica;fontSize=11;fontColor=default;labelBackgroundColor=default;" vertex="1" connectable="0" parent="pCiRDCnECNyycecCbyI0-31">
          <mxGeometry x="0.4207" y="-8" relative="1" as="geometry">
            <mxPoint x="-48" y="32" as="offset" />
          </mxGeometry>
        </mxCell>
        <mxCell id="pCiRDCnECNyycecCbyI0-33" style="edgeStyle=orthogonalEdgeStyle;shape=connector;curved=1;rounded=0;orthogonalLoop=1;jettySize=auto;html=1;strokeColor=default;align=center;verticalAlign=middle;fontFamily=Helvetica;fontSize=11;fontColor=default;labelBackgroundColor=default;endArrow=classic;" edge="1" parent="1" source="pCiRDCnECNyycecCbyI0-26" target="pCiRDCnECNyycecCbyI0-24">
          <mxGeometry relative="1" as="geometry">
            <Array as="points">
              <mxPoint x="670" y="890" />
              <mxPoint x="360" y="890" />
              <mxPoint x="360" y="790" />
            </Array>
          </mxGeometry>
        </mxCell>
        <mxCell id="pCiRDCnECNyycecCbyI0-34" value="Удалить проект" style="edgeLabel;html=1;align=center;verticalAlign=middle;resizable=0;points=[];fontFamily=Helvetica;fontSize=11;fontColor=default;labelBackgroundColor=default;" vertex="1" connectable="0" parent="pCiRDCnECNyycecCbyI0-33">
          <mxGeometry x="0.3241" y="-20" relative="1" as="geometry">
            <mxPoint x="108" as="offset" />
          </mxGeometry>
        </mxCell>
        <mxCell id="pCiRDCnECNyycecCbyI0-26" value="Проект заполнен задачами" style="rounded=1;whiteSpace=wrap;html=1;fontFamily=Helvetica;fontSize=11;fontColor=default;labelBackgroundColor=default;" vertex="1" parent="1">
          <mxGeometry x="610" y="800" width="120" height="60" as="geometry" />
        </mxCell>
        <mxCell id="pCiRDCnECNyycecCbyI0-40" style="edgeStyle=orthogonalEdgeStyle;shape=connector;curved=1;rounded=0;orthogonalLoop=1;jettySize=auto;html=1;strokeColor=default;align=center;verticalAlign=middle;fontFamily=Helvetica;fontSize=11;fontColor=default;labelBackgroundColor=default;endArrow=classic;exitX=0.5;exitY=0;exitDx=0;exitDy=0;entryX=0;entryY=0.5;entryDx=0;entryDy=0;" edge="1" parent="1" source="pCiRDCnECNyycecCbyI0-37" target="pCiRDCnECNyycecCbyI0-44">
          <mxGeometry relative="1" as="geometry" />
        </mxCell>
        <mxCell id="pCiRDCnECNyycecCbyI0-43" value="Нажать &quot;+Добавить задачу&quot;" style="edgeLabel;html=1;align=center;verticalAlign=middle;resizable=0;points=[];fontFamily=Helvetica;fontSize=11;fontColor=default;labelBackgroundColor=default;" vertex="1" connectable="0" parent="pCiRDCnECNyycecCbyI0-40">
          <mxGeometry x="-0.545" y="-10" relative="1" as="geometry">
            <mxPoint x="-90" y="-24" as="offset" />
          </mxGeometry>
        </mxCell>
        <mxCell id="pCiRDCnECNyycecCbyI0-37" value="Задача не создана" style="rounded=1;whiteSpace=wrap;html=1;fontFamily=Helvetica;fontSize=11;fontColor=default;labelBackgroundColor=default;" vertex="1" parent="1">
          <mxGeometry x="140" y="1130" width="120" height="60" as="geometry" />
        </mxCell>
        <mxCell id="pCiRDCnECNyycecCbyI0-41" style="edgeStyle=orthogonalEdgeStyle;shape=connector;curved=1;rounded=0;orthogonalLoop=1;jettySize=auto;html=1;strokeColor=default;align=center;verticalAlign=middle;fontFamily=Helvetica;fontSize=11;fontColor=default;labelBackgroundColor=default;endArrow=classic;" edge="1" parent="1" source="pCiRDCnECNyycecCbyI0-38" target="pCiRDCnECNyycecCbyI0-39">
          <mxGeometry relative="1" as="geometry" />
        </mxCell>
        <mxCell id="pCiRDCnECNyycecCbyI0-42" value="Нажать на иконку мусорки" style="edgeLabel;html=1;align=center;verticalAlign=middle;resizable=0;points=[];fontFamily=Helvetica;fontSize=11;fontColor=default;labelBackgroundColor=default;" vertex="1" connectable="0" parent="pCiRDCnECNyycecCbyI0-41">
          <mxGeometry x="-0.2612" y="-12" relative="1" as="geometry">
            <mxPoint x="77" y="38" as="offset" />
          </mxGeometry>
        </mxCell>
        <mxCell id="pCiRDCnECNyycecCbyI0-47" style="edgeStyle=orthogonalEdgeStyle;shape=connector;curved=1;rounded=0;orthogonalLoop=1;jettySize=auto;html=1;entryX=0.5;entryY=1;entryDx=0;entryDy=0;strokeColor=default;align=center;verticalAlign=middle;fontFamily=Helvetica;fontSize=11;fontColor=default;labelBackgroundColor=default;endArrow=classic;exitX=0.5;exitY=1;exitDx=0;exitDy=0;" edge="1" parent="1" source="pCiRDCnECNyycecCbyI0-38" target="pCiRDCnECNyycecCbyI0-44">
          <mxGeometry relative="1" as="geometry" />
        </mxCell>
        <mxCell id="pCiRDCnECNyycecCbyI0-48" value="Удалить данные о задаче" style="edgeLabel;html=1;align=center;verticalAlign=middle;resizable=0;points=[];fontFamily=Helvetica;fontSize=11;fontColor=default;labelBackgroundColor=default;" vertex="1" connectable="0" parent="pCiRDCnECNyycecCbyI0-47">
          <mxGeometry x="0.1554" y="2" relative="1" as="geometry">
            <mxPoint x="12" y="8" as="offset" />
          </mxGeometry>
        </mxCell>
        <mxCell id="pCiRDCnECNyycecCbyI0-38" value="Задача заполнена данными" style="rounded=1;whiteSpace=wrap;html=1;fontFamily=Helvetica;fontSize=11;fontColor=default;labelBackgroundColor=default;" vertex="1" parent="1">
          <mxGeometry x="570" y="1000" width="120" height="60" as="geometry" />
        </mxCell>
        <mxCell id="pCiRDCnECNyycecCbyI0-39" value="Задача архивирована" style="rounded=1;whiteSpace=wrap;html=1;fontFamily=Helvetica;fontSize=11;fontColor=default;labelBackgroundColor=default;" vertex="1" parent="1">
          <mxGeometry x="707" y="1150" width="120" height="60" as="geometry" />
        </mxCell>
        <mxCell id="pCiRDCnECNyycecCbyI0-45" style="edgeStyle=orthogonalEdgeStyle;shape=connector;curved=1;rounded=0;orthogonalLoop=1;jettySize=auto;html=1;strokeColor=default;align=center;verticalAlign=middle;fontFamily=Helvetica;fontSize=11;fontColor=default;labelBackgroundColor=default;endArrow=classic;" edge="1" parent="1" source="pCiRDCnECNyycecCbyI0-44" target="pCiRDCnECNyycecCbyI0-38">
          <mxGeometry relative="1" as="geometry" />
        </mxCell>
        <mxCell id="pCiRDCnECNyycecCbyI0-46" value="Заполнить задачу данными" style="edgeLabel;html=1;align=center;verticalAlign=middle;resizable=0;points=[];fontFamily=Helvetica;fontSize=11;fontColor=default;labelBackgroundColor=default;" vertex="1" connectable="0" parent="pCiRDCnECNyycecCbyI0-45">
          <mxGeometry x="-0.184" y="1" relative="1" as="geometry">
            <mxPoint x="12" y="-9" as="offset" />
          </mxGeometry>
        </mxCell>
        <mxCell id="pCiRDCnECNyycecCbyI0-44" value="Задача пуста" style="rounded=1;whiteSpace=wrap;html=1;fontFamily=Helvetica;fontSize=11;fontColor=default;labelBackgroundColor=default;" vertex="1" parent="1">
          <mxGeometry x="260" y="1000" width="120" height="60" as="geometry" />
        </mxCell>
      </root>
    </mxGraphModel>
  </diagram>
</mxfile>
